<?xml version="1.0" standalone="no"?>
<!DOCTYPE svg PUBLIC "-//W3C//DTD SVG 20010904//EN"
 "http://www.w3.org/TR/2001/REC-SVG-20010904/DTD/svg10.dtd">
<svg version="1.0" xmlns="http://www.w3.org/2000/svg"
 width="217.000000pt" height="217.000000pt" viewBox="0 0 217.000000 217.000000"
 preserveAspectRatio="xMidYMid meet">
<metadata>
Created by potrace 1.11, written by Peter Selinger 2001-2013
</metadata>
<g transform="translate(0.000000,217.000000) scale(0.100000,-0.100000)"
fill="#000000" stroke="none">
<path d="M745 2071 c-158 -57 -272 -204 -225 -292 29 -54 134 -65 218 -23 78
39 132 122 147 227 6 42 5 47 -11 47 -14 0 -23 -14 -36 -59 -40 -134 -211
-250 -271 -183 -60 66 46 200 199 252 124 43 209 6 184 -79 -8 -30 -126 -216
-180 -285 -16 -21 -30 -42 -30 -47 0 -5 -19 3 -42 18 -38 25 -50 28 -132 28
-82 0 -96 -3 -145 -30 -135 -75 -178 -208 -100 -315 36 -50 110 -87 194 -98
l58 -7 18 -65 c10 -36 35 -98 55 -138 36 -73 36 -74 16 -92 -82 -77 -190 -260
-230 -392 -39 -127 -38 -353 3 -455 21 -51 57 -71 91 -48 48 31 21 93 -36 82
-35 -7 -36 -5 -45 113 -17 221 67 437 241 623 39 41 55 45 75 21 8 -9 32 -28
54 -42 22 -13 52 -36 67 -49 25 -24 31 -25 127 -21 56 2 101 3 101 2 0 -1 -17
-13 -38 -28 -58 -40 -175 -34 -226 12 -12 11 -35 27 -52 37 -31 18 -32 17 -95
-15 -131 -66 -162 -126 -84 -165 35 -18 60 -20 212 -20 l171 0 7 -43 c9 -63
80 -134 154 -156 108 -32 239 -15 353 46 84 45 139 97 197 188 29 44 58 80 67
80 31 0 124 73 124 97 0 22 -20 15 -63 -22 -22 -19 -45 -35 -49 -35 -5 0 12
41 38 91 58 112 126 189 194 218 74 32 65 45 -27 38 -143 -11 -293 -63 -366
-126 -36 -32 -39 -33 -114 -30 l-78 4 -30 -46 c-16 -25 -34 -54 -40 -63 -8
-13 -18 -15 -42 -10 l-33 6 25 20 c14 11 25 26 25 34 0 8 16 38 36 67 25 37
51 60 89 79 104 54 164 138 165 233 0 54 -24 106 -59 124 -24 13 -87 17 -118
7 -16 -5 -22 -2 -25 11 -3 12 20 44 64 91 83 88 122 149 172 266 45 106 56
184 32 221 -31 47 -91 25 -84 -32 2 -23 8 -29 34 -31 l32 -3 -13 -42 c-20 -64
-71 -172 -104 -220 -26 -38 -102 -117 -159 -166 -20 -17 -28 -18 -50 -9 -30
12 -243 15 -287 4 l-27 -7 27 48 c37 64 49 76 41 39 -7 -27 -6 -28 11 -15 36
28 44 44 39 84 -4 34 5 58 61 168 75 145 130 211 211 251 58 29 67 46 23 46
-64 0 -221 -138 -324 -283 -38 -55 -130 -157 -141 -157 -2 0 -9 23 -15 52 -10
45 -9 56 8 89 17 31 17 37 5 32 -14 -5 -14 -3 0 25 41 80 26 179 -33 219 -43
29 -133 31 -206 4z m170 -424 c12 -35 11 -39 -9 -51 -11 -8 -31 -17 -43 -21
-20 -5 -23 -3 -23 21 0 30 53 121 59 101 2 -6 9 -29 16 -50z m109 -44 c-28
-50 -55 -85 -35 -46 6 12 11 30 11 41 0 15 31 48 48 51 2 1 -9 -20 -24 -46z
m-364 11 c96 -39 91 -156 -10 -213 -33 -18 -53 -22 -113 -20 -56 2 -72 -1 -72
-12 0 -24 84 -33 149 -16 31 7 56 13 56 11 0 -1 -16 -12 -35 -24 -19 -12 -43
-35 -52 -51 -20 -34 -44 -37 -119 -11 -68 24 -111 59 -123 102 -42 145 164
296 319 234z m277 -80 l-6 -36 25 17 25 16 -27 -40 c-20 -31 -36 -43 -68 -51
-38 -10 -151 -48 -187 -64 -8 -4 13 24 48 61 35 37 66 76 69 86 3 10 16 17 32
17 15 1 41 7 57 15 17 7 32 14 34 14 2 1 1 -15 -2 -35z m322 -159 c-88 -66
-129 -86 -216 -105 -118 -26 -249 -40 -301 -33 l-42 6 67 23 c38 13 95 42 128
65 71 49 148 66 299 68 l100 1 -35 -25z m280 -103 c15 -35 2 -74 -37 -115 -54
-58 -57 -55 -54 49 l3 94 38 0 c33 0 40 -4 50 -28z m-731 -154 c8 -28 6 -37
-16 -60 -14 -16 -32 -28 -39 -28 -12 0 -44 53 -57 98 -7 21 -5 22 48 22 54 0
56 -1 64 -32z m1044 -146 c-42 -44 -99 -116 -127 -160 -52 -84 -75 -98 -99
-60 -8 14 -4 24 22 51 36 37 40 61 15 90 -17 18 -17 20 17 49 19 16 49 37 65
45 27 15 160 61 177 63 4 0 -28 -35 -70 -78z m-992 19 c0 -5 16 -32 35 -61 19
-29 35 -54 35 -57 0 -8 -100 50 -116 68 -16 17 -15 20 7 38 26 22 39 26 39 12z
m730 -271 c14 -11 30 -20 37 -20 28 0 21 -24 -26 -94 -94 -139 -193 -201 -321
-201 -120 0 -207 47 -226 121 -14 55 0 70 78 84 60 10 227 53 301 77 14 4 17
-1 17 -37 0 -36 -6 -48 -38 -80 -57 -57 -132 -73 -212 -45 -53 19 -70 19 -70
1 0 -19 82 -46 139 -46 66 0 117 17 157 52 49 43 67 83 61 133 -4 40 -2 44 27
58 40 20 46 20 76 -3z"/>
</g>
</svg>
